<?xml version="1.0" standalone="no"?>
<!DOCTYPE svg PUBLIC "-//W3C//DTD SVG 20010904//EN"
 "http://www.w3.org/TR/2001/REC-SVG-20010904/DTD/svg10.dtd">
<svg version="1.0" xmlns="http://www.w3.org/2000/svg"
 width="176.800000pt" height="86.400000pt" viewBox="0 0 176.800000 86.400000"
 preserveAspectRatio="xMidYMid meet">
<metadata>
Created by potrace 1.13, written by Peter Selinger 2001-2015
</metadata>
<g transform="translate(0.000000,86.400000) scale(0.080000,-0.080000)"
fill="#000000" stroke="none">
<path d="M596 838 c-9 -12 -16 -31 -16 -41 0 -16 3 -16 30 5 31 23 41 58 16
58 -8 0 -22 -10 -30 -22z"/>
<path d="M865 793 c-68 -7 -75 -21 -75 -145 l0 -108 30 0 30 0 0 98 c0 122 11
142 75 142 64 0 75 -20 75 -142 l0 -98 33 0 32 0 -3 109 c-3 87 -7 112 -20
124 -18 16 -113 26 -177 20z"/>
<path d="M1184 793 c-64 -6 -72 -22 -76 -146 -3 -116 3 -129 41 -81 12 15 21
40 21 55 0 26 3 29 35 29 24 0 35 5 35 15 0 10 -11 15 -35 15 -32 0 -35 3 -35
28 0 35 26 72 51 72 10 0 19 5 19 10 0 6 -3 9 -7 8 -5 -1 -27 -3 -49 -5z"/>
<path d="M1357 791 c-67 -10 -69 -14 -69 -139 0 -105 8 -112 134 -112 131 0
138 6 138 128 0 72 -3 92 -17 104 -21 18 -119 28 -186 19z m127 -33 c25 -35
22 -148 -5 -182 -27 -34 -79 -36 -109 -4 -16 18 -20 35 -20 93 0 92 15 115 75
115 34 0 47 -5 59 -22z"/>
<path d="M362 686 c5 -142 9 -146 140 -146 134 0 138 4 138 145 0 63 -4 105
-10 105 -5 0 -19 -9 -30 -20 -16 -16 -20 -33 -20 -94 0 -90 -21 -126 -75 -126
-60 0 -75 28 -75 142 l0 98 -36 0 -36 0 4 -104z"/>
<path d="M680 665 l0 -125 35 0 35 0 0 125 0 125 -35 0 -35 0 0 -125z"/>
<path d="M1605 665 l0 -125 32 0 32 0 3 113 3 112 44 3 c59 4 88 -4 102 -29
18 -34 -13 -59 -73 -59 -63 0 -63 -18 0 -88 44 -49 51 -53 86 -50 l39 3 -48
53 c-41 45 -44 52 -25 52 24 0 61 17 72 34 14 21 8 73 -10 89 -15 14 -41 17
-138 17 l-119 0 0 -125z"/>
<path d="M631 441 c-25 -3 -46 -12 -49 -18 -4 -15 24 -17 33 -3 9 14 128 13
143 -2 6 -6 15 -9 19 -5 21 21 -67 38 -146 28z"/>
<path d="M887 443 c-6 -10 -9 -56 -8 -105 1 -46 19 -50 23 -6 4 45 38 53 38
10 0 -17 -6 -33 -12 -35 -7 -3 -3 -6 10 -6 21 -1 22 3 22 64 0 61 -2 66 -26
75 -30 12 -41 12 -47 3z m53 -38 c0 -18 -5 -25 -20 -25 -15 0 -20 7 -20 25 0
18 5 25 20 25 15 0 20 -7 20 -25z"/>
<path d="M990 440 c-18 -6 -9 -8 35 -8 44 0 53 2 35 8 -14 4 -29 8 -35 8 -5 0
-21 -4 -35 -8z"/>
<path d="M1170 373 c0 -54 3 -73 10 -63 5 8 10 23 10 33 0 10 8 17 20 17 14 0
20 -7 20 -24 0 -13 -6 -27 -12 -29 -7 -3 -3 -6 10 -6 21 -1 22 3 22 74 0 56
-3 75 -13 75 -8 0 -13 -10 -13 -22 1 -14 -6 -24 -16 -26 -14 -3 -18 3 -18 22
0 14 -4 26 -10 26 -6 0 -10 -32 -10 -77z"/>
<path d="M1332 428 c2 -14 11 -24 23 -25 11 -2 14 0 8 3 -7 3 -13 14 -13 25 0
10 -5 19 -11 19 -6 0 -9 -10 -7 -22z"/>
<path d="M1482 419 c-13 -16 -19 -29 -13 -29 6 0 11 -20 11 -45 0 -65 18 -55
22 13 2 31 8 65 12 75 13 27 -6 19 -32 -14z"/>
<path d="M1606 438 c12 -22 37 -48 45 -48 4 0 0 13 -9 30 -9 16 -23 30 -30 30
-8 0 -10 -5 -6 -12z"/>
<path d="M1542 415 c-12 -14 -22 -27 -22 -30 0 -10 48 26 54 41 8 22 -8 17
-32 -11z"/>
<path d="M1040 355 c0 -51 2 -55 23 -54 12 0 16 3 10 6 -8 3 -13 24 -13 54 0
27 -4 49 -10 49 -5 0 -10 -25 -10 -55z"/>
<path d="M638 393 c51 -7 41 -31 -15 -36 l-48 -3 49 -2 c46 -2 48 -3 44 -27
-4 -17 -1 -25 8 -25 8 0 14 10 14 24 0 22 5 25 48 29 l47 3 -47 2 c-60 2 -68
29 -10 35 20 2 1 4 -43 4 -44 0 -65 -2 -47 -4z"/>
<path d="M980 349 c0 -31 4 -48 10 -44 6 3 10 26 10 51 0 24 -4 44 -10 44 -5
0 -10 -23 -10 -51z"/>
<path d="M1555 385 c6 -2 22 -6 38 -9 22 -5 27 -12 27 -35 0 -20 -6 -31 -17
-34 -11 -3 -7 -5 10 -6 27 -1 28 1 25 42 l-3 42 -45 2 c-25 1 -40 0 -35 -2z"/>
<path d="M1303 373 c39 -4 46 -13 23 -32 -10 -9 -16 -8 -26 4 -7 8 -17 15 -23
15 -5 0 -2 -9 7 -19 16 -17 16 -20 1 -28 -11 -6 0 -9 36 -9 38 0 45 2 29 8
-21 8 -21 10 -8 26 34 39 31 42 -24 40 -43 -1 -46 -2 -15 -5z"/>
<path d="M1542 330 c-24 -32 -15 -42 10 -12 22 26 30 42 20 42 -4 0 -18 -13
-30 -30z"/>
</g>
</svg>
